<?xml version="1.0" standalone="no"?>
<!DOCTYPE svg PUBLIC "-//W3C//DTD SVG 20010904//EN"
 "http://www.w3.org/TR/2001/REC-SVG-20010904/DTD/svg10.dtd">
<svg version="1.0" xmlns="http://www.w3.org/2000/svg"
 width="512.000000pt" height="512.000000pt" viewBox="0 0 512.000000 512.000000"
 preserveAspectRatio="xMidYMid meet">

<g transform="translate(0.000000,512.000000) scale(0.100000,-0.100000)"
fill="#000000" stroke="none">
<path d="M78 4619 c-23 -12 -46 -35 -58 -59 -20 -39 -20 -51 -18 -2009 l3
-1970 21 -27 c11 -15 33 -37 48 -48 l27 -21 2459 0 2459 0 27 21 c15 11 37 33
48 48 l21 27 3 1970 c2 1959 2 1970 -18 2009 -13 26 -34 47 -60 60 -39 20 -53
20 -2482 20 -2413 -1 -2443 -1 -2480 -21z m2563 -262 c122 -81 65 -271 -81
-271 -146 0 -203 190 -81 271 23 16 49 23 81 23 32 0 58 -7 81 -23z m-1767
-387 c67 -41 67 -39 64 -537 -3 -430 -4 -449 -23 -475 -63 -83 -185 -81 -247
4 l-23 33 -3 415 c-2 228 0 434 3 458 16 109 134 162 229 102z m1765 -169
c121 -87 70 -271 -76 -271 -138 0 -203 159 -105 253 51 49 128 57 181 18z
m-14 -551 c140 -68 90 -280 -65 -280 -155 0 -204 211 -66 280 51 25 79 25 131
0z m-959 -236 c71 -34 99 -134 58 -205 -26 -46 -97 -82 -144 -74 -88 16 -136
78 -128 164 10 104 116 161 214 115z m958 -318 c51 -21 81 -71 81 -133 0 -85
-61 -148 -145 -148 -84 0 -145 63 -145 148 0 111 103 177 209 133z m1784 -493
c14 -11 35 -32 46 -47 20 -27 21 -41 24 -464 l2 -437 -22 -44 c-54 -104 -197
-109 -258 -9 -19 32 -20 52 -20 479 l0 446 23 34 c45 68 143 88 205 42z
m-1767 -76 c39 -26 69 -79 69 -122 0 -43 -30 -96 -69 -122 -71 -48 -175 -20
-213 57 -50 98 21 210 132 210 32 0 58 -7 81 -23z m-28 -541 c67 -27 108 -105
92 -175 -10 -45 -63 -98 -108 -106 -59 -11 -107 3 -143 41 -54 57 -57 135 -7
195 46 55 105 71 166 45z m13 -562 c110 -52 109 -211 -1 -264 -23 -11 -52 -20
-65 -20 -45 0 -105 38 -129 81 -71 126 63 265 195 203z"/>
</g>
</svg>
